<svg xmlns="http://www.w3.org/2000/svg" width="512" height="512" viewBox="0 0 512 512" fill="none">
  <rect width="512" height="512" rx="128" fill="#4F46E5"/>
  <path d="M256 154.667C199.893 154.667 152 202.56 152 258.667C152 314.773 199.893 362.667 256 362.667C312.107 362.667 360 314.773 360 258.667C360 202.56 312.107 154.667 256 154.667ZM256 181.333C270.72 181.333 282.667 193.28 282.667 208C282.667 222.72 270.72 234.667 256 234.667C241.28 234.667 229.333 222.72 229.333 208C229.333 193.28 241.28 181.333 256 181.333ZM256 338.133C226.667 338.133 200.693 322.88 186.667 299.627C186.933 279.147 227.573 267.733 256 267.733C284.373 267.733 325.067 279.147 325.333 299.627C311.307 322.88 285.333 338.133 256 338.133Z" fill="white"/>
</svg>