<svg xmlns="http://www.w3.org/2000/svg" width="144" height="144" viewBox="0 0 144 144" fill="none">
  <rect width="144" height="144" rx="36" fill="#4F46E5"/>
  <path d="M72 43.5C55.845 43.5 42.75 56.595 42.75 72.75C42.75 88.905 55.845 102 72 102C88.155 102 101.25 88.905 101.25 72.75C101.25 56.595 88.155 43.5 72 43.5ZM72 51C76.14 51 79.5 54.36 79.5 58.5C79.5 62.64 76.14 66 72 66C67.86 66 64.5 62.64 64.5 58.5C64.5 54.36 67.86 51 72 51ZM72 95.1C63.75 95.1 56.445 90.81 52.5 84.27C52.575 78.51 64.005 75.3 72 75.3C79.98 75.3 91.425 78.51 91.5 84.27C87.555 90.81 80.25 95.1 72 95.1Z" fill="white"/>
</svg>