<svg xmlns="http://www.w3.org/2000/svg" width="96" height="96" viewBox="0 0 96 96" fill="none">
  <rect width="96" height="96" rx="24" fill="#4F46E5"/>
  <path d="M48 29C37.23 29 28.5 37.73 28.5 48.5C28.5 59.27 37.23 68 48 68C58.77 68 67.5 59.27 67.5 48.5C67.5 37.73 58.77 29 48 29ZM48 34C50.76 34 53 36.24 53 39C53 41.76 50.76 44 48 44C45.24 44 43 41.76 43 39C43 36.24 45.24 34 48 34ZM48 63.4C42.5 63.4 37.63 60.54 35 56.18C35.05 52.34 42.67 50.2 48 50.2C53.32 50.2 60.95 52.34 61 56.18C58.37 60.54 53.5 63.4 48 63.4Z" fill="white"/>
</svg>