<svg xmlns="http://www.w3.org/2000/svg" width="384" height="384" viewBox="0 0 384 384" fill="none">
  <rect width="384" height="384" rx="96" fill="#4F46E5"/>
  <path d="M192 116C149.92 116 114 151.92 114 194C114 236.08 149.92 272 192 272C234.08 272 270 236.08 270 194C270 151.92 234.08 116 192 116ZM192 136C203.04 136 212 144.96 212 156C212 167.04 203.04 176 192 176C180.96 176 172 167.04 172 156C172 144.96 180.96 136 192 136ZM192 253.6C170 253.6 150.52 242.16 140 225.72C140.2 209.36 170.68 200.8 192 200.8C213.28 200.8 243.8 209.36 244 225.72C233.48 242.16 214 253.6 192 253.6Z" fill="white"/>
</svg>