<svg xmlns="http://www.w3.org/2000/svg" width="72" height="72" viewBox="0 0 72 72" fill="none">
  <rect width="72" height="72" rx="18" fill="#4F46E5"/>
  <path d="M36 21.75C27.9225 21.75 21.375 28.2975 21.375 36.375C21.375 44.4525 27.9225 51 36 51C44.0775 51 50.625 44.4525 50.625 36.375C50.625 28.2975 44.0775 21.75 36 21.75ZM36 25.5C38.07 25.5 39.75 27.18 39.75 29.25C39.75 31.32 38.07 33 36 33C33.93 33 32.25 31.32 32.25 29.25C32.25 27.18 33.93 25.5 36 25.5ZM36 47.55C31.875 47.55 28.2225 45.405 26.25 42.135C26.2875 39.255 32.0025 37.65 36 37.65C39.99 37.65 45.7125 39.255 45.75 42.135C43.7775 45.405 40.125 47.55 36 47.55Z" fill="white"/>
</svg>